<?xml version="1.0" encoding="UTF-8"?>
<svg xmlns="http://www.w3.org/2000/svg" xmlns:xlink="http://www.w3.org/1999/xlink" version="1.1" id="Capa_1" x="0px" y="0px" viewBox="0 0 113.8 38" style="enable-background:new 0 0 113.8 38;" xml:space="preserve">
<style type="text/css">
	.st0{fill:#F79530;}
	.st1{fill:#5C5B5D;}
	.st2{fill:#FFC905;}
</style>
<g>
	<g>
		<g>
			<path class="st0" d="M34.3,33.3H36c1.4,0,2.4,0.9,2.4,2.2c0,1.2-1,2.2-2.4,2.2h-1.7V33.3z M36,36.9c0.9,0,1.6-0.6,1.6-1.5     c0-0.9-0.6-1.5-1.6-1.5h-0.9v3H36z"></path>
			<path class="st0" d="M39.3,33.3h3.3V34h-2.5v1.1h2.2v0.7h-2.2V37h2.6v0.7h-3.4V33.3z"></path>
			<path class="st0" d="M47.1,33.2h0.7l2,4.4H49l-0.5-1.1h-2.1L46,37.6h-0.8L47.1,33.2z M48.3,35.9l-0.8-1.8l-0.8,1.8H48.3z"></path>
			<path class="st0" d="M50.6,33.3h0.8v1.8h2.1v-1.8h0.8v4.4h-0.8v-1.8h-2.1v1.8h-0.8V33.3z"></path>
			<path class="st0" d="M55.3,35.5c0-1.2,1-2.3,2.3-2.3s2.3,1,2.3,2.3c0,1.2-1,2.3-2.3,2.3C56.2,37.7,55.3,36.7,55.3,35.5z      M59.1,35.5c0-0.9-0.6-1.6-1.5-1.6c-0.9,0-1.5,0.7-1.5,1.6c0,0.9,0.6,1.6,1.5,1.6C58.5,37,59.1,36.3,59.1,35.5z"></path>
			<path class="st0" d="M60.9,33.3h2c1,0,1.7,0.6,1.7,1.4c0,0.7-0.4,1.2-1.1,1.3l1.2,1.7h-0.9l-1.1-1.5h-1v1.5h-0.8V33.3z      M62.8,35.4c0.6,0,0.9-0.3,0.9-0.7c0-0.5-0.3-0.7-0.9-0.7h-1.1v1.5H62.8z"></path>
			<path class="st0" d="M65.5,33.3h2c1,0,1.7,0.6,1.7,1.4c0,0.7-0.4,1.2-1.1,1.3l1.2,1.7h-0.9l-1.1-1.5h-1v1.5h-0.8V33.3z      M67.5,35.4c0.6,0,0.9-0.3,0.9-0.7c0-0.5-0.3-0.7-0.9-0.7h-1.1v1.5H67.5z"></path>
			<path class="st0" d="M69.9,35.5c0-1.2,1-2.3,2.3-2.3c1.4,0,2.3,1,2.3,2.3c0,1.2-1,2.3-2.3,2.3C70.9,37.7,69.9,36.7,69.9,35.5z      M73.8,35.5c0-0.9-0.6-1.6-1.5-1.6c-0.9,0-1.5,0.7-1.5,1.6c0,0.9,0.6,1.6,1.5,1.6C73.2,37,73.8,36.3,73.8,35.5z"></path>
			<path class="st0" d="M78.8,35.9L77,33.3H78l1.3,1.9l1.3-1.9h0.9l-1.8,2.6v1.7h-0.8V35.9z"></path>
			<path class="st0" d="M83.8,35.5c0-1.2,1-2.3,2.3-2.3c0.8,0,1.3,0.3,1.8,0.7l-0.5,0.6c-0.4-0.3-0.7-0.5-1.3-0.5     c-0.9,0-1.5,0.7-1.5,1.6c0,0.9,0.6,1.6,1.5,1.6c0.5,0,0.9-0.2,1.3-0.6l0.5,0.5c-0.5,0.5-1,0.8-1.8,0.8     C84.8,37.7,83.8,36.7,83.8,35.5z"></path>
			<path class="st0" d="M88.7,33.3h2c1,0,1.7,0.6,1.7,1.4c0,0.7-0.4,1.2-1.1,1.3l1.2,1.7h-0.9l-1.1-1.5h-1v1.5h-0.8V33.3z      M90.7,35.4c0.6,0,0.9-0.3,0.9-0.7c0-0.5-0.3-0.7-0.9-0.7h-1.1v1.5H90.7z"></path>
			<path class="st0" d="M93.3,33.3h3.3V34h-2.5v1.1h2.2v0.7h-2.2V37h2.6v0.7h-3.4V33.3z M95.2,31.9l0.7,0.3l-0.8,0.7h-0.6L95.2,31.9     z"></path>
			<path class="st0" d="M97.6,33.3h1.7c1.4,0,2.4,0.9,2.4,2.2c0,1.2-1,2.2-2.4,2.2h-1.7V33.3z M99.3,36.9c0.9,0,1.6-0.6,1.6-1.5     c0-0.9-0.6-1.5-1.6-1.5h-0.9v3H99.3z"></path>
			<path class="st0" d="M102.7,33.3h0.8v4.4h-0.8V33.3z"></path>
			<path class="st0" d="M105.7,34h-1.4v-0.7h3.6V34h-1.4v3.7h-0.8V34z"></path>
			<path class="st0" d="M108.4,35.5c0-1.2,1-2.3,2.3-2.3c1.4,0,2.3,1,2.3,2.3c0,1.2-1,2.3-2.3,2.3C109.3,37.7,108.4,36.7,108.4,35.5     z M112.2,35.5c0-0.9-0.6-1.6-1.5-1.6c-0.9,0-1.5,0.7-1.5,1.6c0,0.9,0.6,1.6,1.5,1.6C111.6,37,112.2,36.3,112.2,35.5z"></path>
		</g>
		<g>
			<path class="st1" d="M34.3,20.9L34.3,20.9c0-5.3,4.1-9.4,9.7-9.4c3.8,0,6.2,1.5,7.8,3.8L48,18.1C47,16.8,45.8,16,44,16     c-2.6,0-4.4,2.1-4.4,4.8v0.1c0,2.7,1.8,4.8,4.4,4.8c1.9,0,3.1-0.9,4.2-2.2l3.8,2.7c-1.7,2.3-4.1,4.1-8.2,4.1     C38.6,30.2,34.3,26.2,34.3,20.9z"></path>
			<path class="st1" d="M53.1,20.9L53.1,20.9c0-5.2,4.3-9.4,10-9.4c5.7,0,9.9,4.1,9.9,9.3v0.1c0,5.2-4.3,9.4-10,9.4     S53.1,26,53.1,20.9z M67.7,20.9L67.7,20.9c0-2.7-1.9-4.9-4.7-4.9c-2.8,0-4.7,2.2-4.7,4.8v0.1c0,2.6,1.9,4.9,4.7,4.9     C65.8,25.7,67.7,23.5,67.7,20.9z"></path>
			<path class="st1" d="M74.9,20.9L74.9,20.9c0-5.2,4.3-9.4,10-9.4c5.7,0,9.9,4.1,9.9,9.3v0.1c0,5.2-4.3,9.4-10,9.4     S74.9,26,74.9,20.9z M89.6,20.9L89.6,20.9c0-2.7-1.9-4.9-4.7-4.9c-2.8,0-4.7,2.2-4.7,4.8v0.1c0,2.6,1.9,4.9,4.7,4.9     C87.7,25.7,89.6,23.5,89.6,20.9z"></path>
			<path class="st1" d="M97.5,11.8h7.9c4.7,0,7.7,2.3,7.7,6.3v0.1c0,4.3-3.3,6.5-7.9,6.5h-2.5v5.2h-5.1V11.8z M105,20.8     c1.8,0,2.9-0.9,2.9-2.3v-0.1c0-1.5-1.1-2.4-3-2.4h-2.4v4.8H105z"></path>
		</g>
	</g>
	<g>
		<path class="st2" d="M22.1,11.5c-2.5,0-4.6,2-4.7,4.5h0v4c0,1.7-1.2,0.5-1.2,0.5l0,0c-1.9-2-5.4-5.6-7.1-7.2    c-1.6-1.7-3.9-2.2-5.9-1.3c-1.7,0.8-2.4,2-2.4,3.8v3.5c0,2.2,0,4.5,0,6.7c0.2-0.1,0.4-0.2,0.5-0.3c2.4-1.7,5-1.5,6.9,0.4    c2.8,2.8,7.6,7.5,10.4,10.3l0,0c0.8,0.9,2,1.4,3.4,1.4c2.6,0,4.7-2.1,4.7-4.7V16.1C26.7,13.6,24.6,11.5,22.1,11.5z"></path>
		<path class="st0" d="M8.4,26c-1.9-1.9-4.6-2.1-6.9-0.4c-0.1,0.1-0.3,0.2-0.5,0.3v7.1c0,2.6,2.1,4.7,4.7,4.7c2.3,0,4.3-1.7,4.6-4    v-5.9C9.5,27.2,8.9,26.6,8.4,26z"></path>
		<g>
			<path class="st0" d="M5.5,10c-2.7,0-4.9-2.3-4.8-5c0-2.7,2.2-4.8,5-4.8c2.7,0,4.8,2.2,4.8,4.9C10.4,7.9,8.2,10.1,5.5,10z"></path>
		</g>
	</g>
</g>
</svg>
